<svg height="496pt" viewBox="0 0 496.00007 496" width="496pt" xmlns="http://www.w3.org/2000/svg"><path d="m152 8h336v448h-336zm0 0" fill="#656665"/><path d="m456 488h-336v-448h272v64h64zm0 0" fill="#bab8b9"/><path d="m72 336h96l-8-32h-80zm0 0" fill="#cb9e78"/><path d="m80 200-72 224h48l48-208" fill="#bc8f6f"/><path d="m160 200 72 224h-48l-48-208" fill="#bc8f6f"/><path d="m168 176c0 26.507812-21.492188 48-48 48s-48-21.492188-48-48 21.492188-48 48-48 48 21.492188 48 48zm0 0" fill="#dc6068"/><path d="m136 176c0 8.835938-7.164062 16-16 16s-16-7.164062-16-16 7.164062-16 16-16 16 7.164062 16 16zm0 0" fill="#efedee"/><path d="m104 128v-32c0-8.839844 7.160156-16 16-16s16 7.160156 16 16v32" fill="#bc8f6f"/><path d="m384 256c0 30.929688-25.070312 56-56 56s-56-25.070312-56-56 25.070312-56 56-56 56 25.070312 56 56zm0 0" fill="#599072"/><path d="m424 192c0 30.929688-25.070312 56-56 56s-56-25.070312-56-56 25.070312-56 56-56 56 25.070312 56 56zm0 0" fill="#f8cf6a"/><path d="m344 192c0 30.929688-25.070312 56-56 56s-56-25.070312-56-56 25.070312-56 56-56 56 25.070312 56 56zm0 0" fill="#699ce6"/><path d="m456 104-64-64v64zm0 0" fill="#999"/><path d="m488 464h-32v-16h24v-432h-320v24h-16v-32c0-4.425781 3.585938-8 8-8h336c4.417969 0 8 3.574219 8 8v448c0 4.425781-3.582031 8-8 8zm0 0"/><path d="m456 496h-336c-4.414062 0-8-3.574219-8-8v-152h16v144h320v-368h-56c-4.414062 0-8-3.574219-8-8v-56h-256v32h-16v-40c0-4.425781 3.585938-8 8-8h272c4.417969 0 8 3.574219 8 8v56h56c4.417969 0 8 3.574219 8 8v384c0 4.425781-3.582031 8-8 8zm0 0"/><path d="m386.339844 45.660156 11.3125-11.316406 64 64.003906-11.3125 11.3125zm0 0"/><path d="m120 200c-13.230469 0-24-10.769531-24-24s10.769531-24 24-24 24 10.769531 24 24-10.769531 24-24 24zm0-32c-4.40625 0-8 3.585938-8 8 0 4.417969 3.59375 8 8 8s8-3.582031 8-8c0-4.414062-3.59375-8-8-8zm0 0"/><path d="m120 232c-30.878906 0-56-25.128906-56-56s25.121094-56 56-56 56 25.128906 56 56-25.121094 56-56 56zm0-96c-22.054688 0-40 17.945312-40 40s17.945312 40 40 40 40-17.945312 40-40-17.945312-40-40-40zm0 0"/><path d="m56 432h-48c-2.550781 0-4.960938-1.214844-6.464844-3.289062-1.503906-2.0625-1.933594-4.726563-1.152344-7.160157l72-224 15.234376 4.890625-68.640626 213.558594h30.664063l46.566406-201.800781 15.59375 3.59375-48 208c-.839843 3.640625-4.074219 6.207031-7.800781 6.207031zm0 0"/><path d="m232 432h-48c-3.726562 0-6.960938-2.566406-7.800781-6.199219l-48-208 15.59375-3.59375 46.566406 201.792969h30.664063l-68.648438-213.550781 15.234375-4.890625 72 224c.78125 2.433594.351563 5.097656-1.152344 7.160156-1.496093 2.066406-3.90625 3.28125-6.457031 3.28125zm0 0"/><path d="m24 424h16v40h-16zm0 0"/><path d="m200 424h16v40h-16zm0 0"/><path d="m144 128h-16v-32c0-4.414062-3.59375-8-8-8s-8 3.585938-8 8v32h-16v-32c0-13.230469 10.769531-24 24-24s24 10.769531 24 24zm0 0"/><path d="m80 296h80v16h-80zm0 0"/><path d="m72 328h96v16h-96zm0 0"/><path d="m288 256c-35.289062 0-64-28.710938-64-64s28.710938-64 64-64 64 28.710938 64 64-28.710938 64-64 64zm0-112c-26.472656 0-48 21.527344-48 48s21.527344 48 48 48 48-21.527344 48-48-21.527344-48-48-48zm0 0"/><path d="m328 320c-35.289062 0-64-28.710938-64-64s28.710938-64 64-64 64 28.710938 64 64-28.710938 64-64 64zm0-112c-26.472656 0-48 21.527344-48 48s21.527344 48 48 48 48-21.527344 48-48-21.527344-48-48-48zm0 0"/><path d="m368 256c-35.289062 0-64-28.710938-64-64s28.710938-64 64-64 64 28.710938 64 64-28.710938 64-64 64zm0-112c-26.472656 0-48 21.527344-48 48s21.527344 48 48 48 48-21.527344 48-48-21.527344-48-48-48zm0 0"/><path d="m256 336h176v16h-176zm0 0"/><path d="m256 368h176v16h-176zm0 0"/><path d="m256 400h176v16h-176zm0 0"/><path d="m256 432h176v16h-176zm0 0"/></svg>